:SAMPLES-PER-SECOND 30
:FULLY-SPECIFIED
:DEGREES
17
root  8.00729 39.8838 0.218015 7.37646 -78.5633 -11.8495
RightUpLeg  -3.53202 -6.61095 -0.435778
RightLeg  7.73859 -18.9103 -1.73379
RightFoot  1.61355 -0.901394 8.02378
RightToes  1.16414e-010 0 -3.6325e-017
Spine  4.46531 -4.01247 4.86377
Spine1  17.5212 -7.45986 10.9615
HEad  43.9624 -15.6387 -0.106575
LeftShoulder1  1.42725 -5.47949 -8.41396
LeftArm  50.2087 30.4404 -44.9241
LeftForeArm  92.9858 -78.0629 -41.0641
LeftHand  -0.714088 3.56337 44.3215
RightShoulder  1.22945 2.43978 13.8097
RightArm  47.2282 -17.9159 24.9817
RightForeArm  158.887 79.4878 125.567
RightHand  -2.96674 10.0009 -22.4406
LeftUpLeg  -7.40362 14.1515 14.8294
LeftLeg  34.3222 -2.74616 -1.68006
LeftFoot  -3.42188 1.49535 -21.0632
LeftToes  7.09373e-011 9.9627e-011 8.96859e-012
18
root  7.86132 39.9775 0.148573 4.45191 -78.906 -8.75644
RightUpLeg  -3.08923 -6.8727 -1.02184
RightLeg  6.93918 -18.4299 -1.32753
RightFoot  1.74598 -0.874269 7.71485
RightToes  1.16414e-010 0 -3.6325e-017
Spine  4.32004 -3.98355 4.95285
Spine1  17.083 -7.12289 10.0171
HEad  42.2166 -16.1411 0.343783
LeftShoulder1  1.41708 -5.57024 -8.11051
LeftArm  50.4863 30.1359 -44.9225
LeftForeArm  92.8449 -77.9984 -40.7525
LeftHand  -0.719122 3.55309 44.3745
RightShoulder  1.27576 2.62839 13.9411
RightArm  47.7287 -17.2679 25.3784
RightForeArm  157.276 79.7818 123.371
RightHand  -3.04115 10.2956 -22.5641
LeftUpLeg  -6.31139 13.37 14.8405
LeftLeg  30.5134 1.0804 1.00302
LeftFoot  -4.23909 1.19647 -18.7505
LeftToes  7.09373e-011 9.9627e-011 8.96859e-012
19
root  7.70515 40.0688 0.0861573 1.74177 -79.2694 -5.83043
RightUpLeg  -2.7064 -7.02218 -1.49403
RightLeg  6.14821 -17.983 -1.01395
RightFoot  1.92864 -0.83519 7.28344
RightToes  1.16414e-010 0 -3.6325e-017
Spine  4.19786 -3.79523 4.83153
Spine1  16.4358 -6.73579 9.43234
HEad  39.8239 -16.7001 0.725133
LeftShoulder1  1.42408 -5.66361 -8.01789
LeftArm  50.948 29.7761 -44.5938
LeftForeArm  93.6432 -78.1644 -41.4564
LeftHand  -0.77592 3.3962 44.0487
RightShoulder  1.32126 2.7927 14.1357
RightArm  48.125 -17.342 25.6877
RightForeArm  158.509 79.8986 123.007
RightHand  -3.1684 10.6388 -22.9897
LeftUpLeg  -4.52851 11.831 14.8629
LeftLeg  24.5995 5.61511 3.10307
LeftFoot  -4.06041 1.0858 -16.5975
LeftToes  7.09373e-011 9.9627e-011 8.96859e-012
20
root  7.53985 40.1393 0.0396041 -0.0436912 -79.5726 -3.76202
RightUpLeg  -2.46802 -7.09395 -1.77908
RightLeg  5.51875 -17.6237 -0.767684
RightFoot  2.04093 -0.798961 6.92063
RightToes  1.16414e-010 0 -3.6325e-017
Spine  4.03672 -3.56854 4.36157
Spine1  15.7083 -6.52297 9.49856
HEad  36.5434 -16.9391 0.96058
LeftShoulder1  1.45258 -5.78825 -8.12834
LeftArm  51.3223 29.7385 -44.2187
LeftForeArm  94.5384 -78.3405 -42.2252
LeftHand  -0.874682 3.11828 43.4916
RightShoulder  1.37105 2.88745 14.6539
RightArm  48.7817 -17.4315 25.548
RightForeArm  159.043 79.9925 122.564
RightHand  -3.20039 10.7163 -23.1047
LeftUpLeg  -2.46579 10.0432 14.9779
LeftLeg  17.4436 9.24542 3.64123
LeftFoot  -3.59421 1.0902 -15.699
LeftToes  7.09373e-011 9.9627e-011 8.96859e-012
21
root  7.3765 40.1935 0.0179222 -0.71432 -79.6802 -2.7521
RightUpLeg  -2.29379 -7.13827 -1.91931
RightLeg  4.92994 -17.4862 -0.497453
RightFoot  2.10359 -0.782673 6.75378
RightToes  1.16414e-010 0 -3.6325e-017
Spine  3.80433 -3.50186 3.65707
Spine1  15.0264 -6.5977 9.89408
HEad  32.4678 -16.7493 1.10558
LeftShoulder1  1.47843 -5.90755 -8.2143
LeftArm  51.3314 30.141 -44.18
LeftForeArm  94.6373 -78.3274 -42.1232
LeftHand  -0.944379 2.9214 43.1638
RightShoulder  1.35636 2.88424 14.4112
RightArm  49.4395 -17.2965 26.0368
RightForeArm  156.627 80.1676 120.652
RightHand  -3.1264 10.6058 -22.7412
LeftUpLeg  -0.62794 9.84552 15.1555
LeftLeg  10.1019 9.62604 3.0768
LeftFoot  -3.248 1.17222 -16.2027
LeftToes  7.09373e-011 9.9627e-011 8.96859e-012
22
root  7.23974 40.2186 0.0361496 -0.419386 -79.4327 -2.74053
RightUpLeg  -2.20261 -7.17055 -1.95331
RightLeg  4.59279 -17.6998 -0.326549
RightFoot  2.07803 -0.78171 6.76005
RightToes  1.16414e-010 0 -3.6325e-017
Spine  3.70953 -3.6783 2.97275
Spine1  14.31 -6.93039 10.3799
HEad  27.8248 -16.4153 1.21929
LeftShoulder1  1.50145 -6.00906 -8.29745
LeftArm  51.1698 30.6503 -44.3476
LeftForeArm  94.0737 -78.1645 -41.3425
LeftHand  -0.934594 2.95447 43.3013
RightShoulder  1.3572 2.89053 14.403
RightArm  49.7341 -16.7851 25.9132
RightForeArm  155.003 80.2107 119.828
RightHand  -3.04188 10.5967 -22.165
LeftUpLeg  0.570613 11.7085 15.4575
LeftLeg  4.02021 6.25692 2.33705
LeftFoot  -2.64837 1.38555 -17.8806
LeftToes  7.09373e-011 9.9627e-011 8.96859e-012
